<?xml version="1.0" encoding="utf-8"?>
<!-- Generator: Adobe Illustrator 16.0.0, SVG Export Plug-In . SVG Version: 6.00 Build 0)  -->
<!DOCTYPE svg PUBLIC "-//W3C//DTD SVG 1.1//EN" "http://www.w3.org/Graphics/SVG/1.1/DTD/svg11.dtd">
<svg version="1.1" id="Layer_2" xmlns="http://www.w3.org/2000/svg" xmlns:xlink="http://www.w3.org/1999/xlink" x="0px" y="0px"
	 width="15px" height="15px" viewBox="15.244 -0.015 15 15" enable-background="new 15.244 -0.015 15 15" xml:space="preserve">
<g>
	<path fill="#005EFF" d="M22.743,1.985c3.033,0,5.501,2.467,5.501,5.499c0,3.033-2.468,5.5-5.501,5.5
		c-3.032,0-5.499-2.468-5.499-5.5C17.244,4.452,19.711,1.985,22.743,1.985 M22.743-0.015c-4.143,0-7.499,3.357-7.499,7.499
		c0,4.143,3.356,7.5,7.499,7.5c4.145,0,7.501-3.357,7.501-7.5C30.244,3.342,26.888-0.015,22.743-0.015L22.743-0.015z"/>
</g>
<g>
	<path fill="#005EFF" d="M21.616,9.332l-0.013-0.334c-0.039-0.66,0.181-1.331,0.762-2.027c0.413-0.491,0.749-0.904,0.749-1.343
		c0-0.452-0.297-0.749-0.942-0.774c-0.427,0-0.942,0.155-1.278,0.387l-0.439-1.407c0.465-0.271,1.24-0.529,2.156-0.529
		c1.704,0,2.479,0.942,2.479,2.014c0,0.981-0.606,1.626-1.098,2.168C23.514,8.016,23.32,8.52,23.333,9.1v0.232H21.616z
		 M21.28,11.113c0-0.684,0.479-1.174,1.149-1.174c0.697,0,1.148,0.49,1.162,1.174c0,0.672-0.465,1.176-1.162,1.176
		C21.745,12.289,21.28,11.785,21.28,11.113z"/>
</g>
</svg>
